<svg xmlns="http://www.w3.org/2000/svg" version="1.1" xmlns:xlink="http://www.w3.org/1999/xlink" xmlns:svgjs="http://svgjs.com/svgjs" width="1440" height="560" preserveAspectRatio="none" viewBox="0 0 1440 560"><g mask="url(&quot;#SvgjsMask2474&quot;)" fill="none"><path d="M14.95 196.11L79.9 233.61L79.9 308.61L14.95 346.11L-50 308.61L-50 233.61zM14.95 421.11L79.9 458.61L79.9 533.61L14.95 571.11L-50 533.61L-50 458.61zM79.9 533.61L144.86 571.11L144.86 646.11L79.9 683.61L14.95 646.11L14.95 571.11zM144.86 -28.89L209.81 8.61L209.81 83.61L144.86 121.11L79.9 83.61L79.9 8.61zM209.81 533.61L274.76 571.11L274.76 646.11L209.81 683.61L144.86 646.11L144.86 571.11zM274.76 -28.89L339.72 8.61L339.72 83.61L274.76 121.11L209.81 83.61L209.81 8.61zM274.76 421.11L339.72 458.61L339.72 533.61L274.76 571.11L209.81 533.61L209.81 458.61zM404.67 196.11L469.63 233.61L469.63 308.61L404.67 346.11L339.72 308.61L339.72 233.61zM469.63 308.61L534.58 346.11L534.58 421.11L469.63 458.61L404.67 421.11L404.67 346.11zM404.67 421.11L469.63 458.61L469.63 533.61L404.67 571.11L339.72 533.61L339.72 458.61zM534.58 196.11L599.53 233.61L599.53 308.61L534.58 346.11L469.63 308.61L469.63 233.61zM599.53 308.61L664.49 346.11L664.49 421.11L599.53 458.61L534.58 421.11L534.58 346.11zM664.49 -28.89L729.44 8.61L729.44 83.61L664.49 121.11L599.53 83.61L599.53 8.61zM664.49 421.11L729.44 458.61L729.44 533.61L664.49 571.11L599.53 533.61L599.53 458.61zM859.35 83.61L924.3 121.11L924.3 196.11L859.35 233.61L794.39 196.11L794.39 121.11zM794.39 421.11L859.35 458.61L859.35 533.61L794.39 571.11L729.44 533.61L729.44 458.61zM924.3 -28.89L989.26 8.61L989.26 83.61L924.3 121.11L859.35 83.61L859.35 8.61zM924.3 196.11L989.26 233.61L989.26 308.61L924.3 346.11L859.35 308.61L859.35 233.61zM989.26 533.61L1054.21 571.11L1054.21 646.11L989.26 683.61L924.3 646.11L924.3 571.11zM1119.16 83.61L1184.12 121.11L1184.12 196.11L1119.16 233.61L1054.21 196.11L1054.21 121.11zM1054.21 421.11L1119.16 458.61L1119.16 533.61L1054.21 571.11L989.26 533.61L989.26 458.61zM1184.12 -28.89L1249.07 8.61L1249.07 83.61L1184.12 121.11L1119.16 83.61L1119.16 8.61zM1184.12 196.11L1249.07 233.61L1249.07 308.61L1184.12 346.11L1119.16 308.61L1119.16 233.61zM1249.07 533.61L1314.02 571.11L1314.02 646.11L1249.07 683.61L1184.12 646.11L1184.12 571.11z" stroke="url(#SvgjsLinearGradient2475)" stroke-width="2"></path><path d="M7.45 196.11 a7.5 7.5 0 1 0 15 0 a7.5 7.5 0 1 0 -15 0zM72.4 233.61 a7.5 7.5 0 1 0 15 0 a7.5 7.5 0 1 0 -15 0zM72.4 308.61 a7.5 7.5 0 1 0 15 0 a7.5 7.5 0 1 0 -15 0zM7.45 346.11 a7.5 7.5 0 1 0 15 0 a7.5 7.5 0 1 0 -15 0zM-57.5 308.61 a7.5 7.5 0 1 0 15 0 a7.5 7.5 0 1 0 -15 0zM-57.5 233.61 a7.5 7.5 0 1 0 15 0 a7.5 7.5 0 1 0 -15 0zM7.45 421.11 a7.5 7.5 0 1 0 15 0 a7.5 7.5 0 1 0 -15 0zM72.4 458.61 a7.5 7.5 0 1 0 15 0 a7.5 7.5 0 1 0 -15 0zM72.4 533.61 a7.5 7.5 0 1 0 15 0 a7.5 7.5 0 1 0 -15 0zM7.45 571.11 a7.5 7.5 0 1 0 15 0 a7.5 7.5 0 1 0 -15 0zM-57.5 533.61 a7.5 7.5 0 1 0 15 0 a7.5 7.5 0 1 0 -15 0zM-57.5 458.61 a7.5 7.5 0 1 0 15 0 a7.5 7.5 0 1 0 -15 0zM137.36 571.11 a7.5 7.5 0 1 0 15 0 a7.5 7.5 0 1 0 -15 0zM137.36 646.11 a7.5 7.5 0 1 0 15 0 a7.5 7.5 0 1 0 -15 0zM72.4 683.61 a7.5 7.5 0 1 0 15 0 a7.5 7.5 0 1 0 -15 0zM7.45 646.11 a7.5 7.5 0 1 0 15 0 a7.5 7.5 0 1 0 -15 0zM137.36 -28.89 a7.5 7.5 0 1 0 15 0 a7.5 7.5 0 1 0 -15 0zM202.31 8.61 a7.5 7.5 0 1 0 15 0 a7.5 7.5 0 1 0 -15 0zM202.31 83.61 a7.5 7.5 0 1 0 15 0 a7.5 7.5 0 1 0 -15 0zM137.36 121.11 a7.5 7.5 0 1 0 15 0 a7.5 7.5 0 1 0 -15 0zM72.4 83.61 a7.5 7.5 0 1 0 15 0 a7.5 7.5 0 1 0 -15 0zM72.4 8.61 a7.5 7.5 0 1 0 15 0 a7.5 7.5 0 1 0 -15 0zM202.31 533.61 a7.5 7.5 0 1 0 15 0 a7.5 7.5 0 1 0 -15 0zM267.26 571.11 a7.5 7.5 0 1 0 15 0 a7.5 7.5 0 1 0 -15 0zM267.26 646.11 a7.5 7.5 0 1 0 15 0 a7.5 7.5 0 1 0 -15 0zM202.31 683.61 a7.5 7.5 0 1 0 15 0 a7.5 7.5 0 1 0 -15 0zM267.26 -28.89 a7.5 7.5 0 1 0 15 0 a7.5 7.5 0 1 0 -15 0zM332.22 8.61 a7.5 7.5 0 1 0 15 0 a7.5 7.5 0 1 0 -15 0zM332.22 83.61 a7.5 7.5 0 1 0 15 0 a7.5 7.5 0 1 0 -15 0zM267.26 121.11 a7.5 7.5 0 1 0 15 0 a7.5 7.5 0 1 0 -15 0zM267.26 421.11 a7.5 7.5 0 1 0 15 0 a7.5 7.5 0 1 0 -15 0zM332.22 458.61 a7.5 7.5 0 1 0 15 0 a7.5 7.5 0 1 0 -15 0zM332.22 533.61 a7.5 7.5 0 1 0 15 0 a7.5 7.5 0 1 0 -15 0zM202.31 458.61 a7.5 7.5 0 1 0 15 0 a7.5 7.5 0 1 0 -15 0zM397.17 196.11 a7.5 7.5 0 1 0 15 0 a7.5 7.5 0 1 0 -15 0zM462.13 233.61 a7.5 7.5 0 1 0 15 0 a7.5 7.5 0 1 0 -15 0zM462.13 308.61 a7.5 7.5 0 1 0 15 0 a7.5 7.5 0 1 0 -15 0zM397.17 346.11 a7.5 7.5 0 1 0 15 0 a7.5 7.5 0 1 0 -15 0zM332.22 308.61 a7.5 7.5 0 1 0 15 0 a7.5 7.5 0 1 0 -15 0zM332.22 233.61 a7.5 7.5 0 1 0 15 0 a7.5 7.5 0 1 0 -15 0zM527.08 346.11 a7.5 7.5 0 1 0 15 0 a7.5 7.5 0 1 0 -15 0zM527.08 421.11 a7.5 7.5 0 1 0 15 0 a7.5 7.5 0 1 0 -15 0zM462.13 458.61 a7.5 7.5 0 1 0 15 0 a7.5 7.5 0 1 0 -15 0zM397.17 421.11 a7.5 7.5 0 1 0 15 0 a7.5 7.5 0 1 0 -15 0zM462.13 533.61 a7.5 7.5 0 1 0 15 0 a7.5 7.5 0 1 0 -15 0zM397.17 571.11 a7.5 7.5 0 1 0 15 0 a7.5 7.5 0 1 0 -15 0zM527.08 196.11 a7.5 7.5 0 1 0 15 0 a7.5 7.5 0 1 0 -15 0zM592.03 233.61 a7.5 7.5 0 1 0 15 0 a7.5 7.5 0 1 0 -15 0zM592.03 308.61 a7.5 7.5 0 1 0 15 0 a7.5 7.5 0 1 0 -15 0zM656.99 346.11 a7.5 7.5 0 1 0 15 0 a7.5 7.5 0 1 0 -15 0zM656.99 421.11 a7.5 7.5 0 1 0 15 0 a7.5 7.5 0 1 0 -15 0zM592.03 458.61 a7.5 7.5 0 1 0 15 0 a7.5 7.5 0 1 0 -15 0zM656.99 -28.89 a7.5 7.5 0 1 0 15 0 a7.5 7.5 0 1 0 -15 0zM721.94 8.61 a7.5 7.5 0 1 0 15 0 a7.5 7.5 0 1 0 -15 0zM721.94 83.61 a7.5 7.5 0 1 0 15 0 a7.5 7.5 0 1 0 -15 0zM656.99 121.11 a7.5 7.5 0 1 0 15 0 a7.5 7.5 0 1 0 -15 0zM592.03 83.61 a7.5 7.5 0 1 0 15 0 a7.5 7.5 0 1 0 -15 0zM592.03 8.61 a7.5 7.5 0 1 0 15 0 a7.5 7.5 0 1 0 -15 0zM721.94 458.61 a7.5 7.5 0 1 0 15 0 a7.5 7.5 0 1 0 -15 0zM721.94 533.61 a7.5 7.5 0 1 0 15 0 a7.5 7.5 0 1 0 -15 0zM656.99 571.11 a7.5 7.5 0 1 0 15 0 a7.5 7.5 0 1 0 -15 0zM592.03 533.61 a7.5 7.5 0 1 0 15 0 a7.5 7.5 0 1 0 -15 0zM851.85 83.61 a7.5 7.5 0 1 0 15 0 a7.5 7.5 0 1 0 -15 0zM916.8 121.11 a7.5 7.5 0 1 0 15 0 a7.5 7.5 0 1 0 -15 0zM916.8 196.11 a7.5 7.5 0 1 0 15 0 a7.5 7.5 0 1 0 -15 0zM851.85 233.61 a7.5 7.5 0 1 0 15 0 a7.5 7.5 0 1 0 -15 0zM786.89 196.11 a7.5 7.5 0 1 0 15 0 a7.5 7.5 0 1 0 -15 0zM786.89 121.11 a7.5 7.5 0 1 0 15 0 a7.5 7.5 0 1 0 -15 0zM786.89 421.11 a7.5 7.5 0 1 0 15 0 a7.5 7.5 0 1 0 -15 0zM851.85 458.61 a7.5 7.5 0 1 0 15 0 a7.5 7.5 0 1 0 -15 0zM851.85 533.61 a7.5 7.5 0 1 0 15 0 a7.5 7.5 0 1 0 -15 0zM786.89 571.11 a7.5 7.5 0 1 0 15 0 a7.5 7.5 0 1 0 -15 0zM916.8 -28.89 a7.5 7.5 0 1 0 15 0 a7.5 7.5 0 1 0 -15 0zM981.76 8.61 a7.5 7.5 0 1 0 15 0 a7.5 7.5 0 1 0 -15 0zM981.76 83.61 a7.5 7.5 0 1 0 15 0 a7.5 7.5 0 1 0 -15 0zM851.85 8.61 a7.5 7.5 0 1 0 15 0 a7.5 7.5 0 1 0 -15 0zM981.76 233.61 a7.5 7.5 0 1 0 15 0 a7.5 7.5 0 1 0 -15 0zM981.76 308.61 a7.5 7.5 0 1 0 15 0 a7.5 7.5 0 1 0 -15 0zM916.8 346.11 a7.5 7.5 0 1 0 15 0 a7.5 7.5 0 1 0 -15 0zM851.85 308.61 a7.5 7.5 0 1 0 15 0 a7.5 7.5 0 1 0 -15 0zM981.76 533.61 a7.5 7.5 0 1 0 15 0 a7.5 7.5 0 1 0 -15 0zM1046.71 571.11 a7.5 7.5 0 1 0 15 0 a7.5 7.5 0 1 0 -15 0zM1046.71 646.11 a7.5 7.5 0 1 0 15 0 a7.5 7.5 0 1 0 -15 0zM981.76 683.61 a7.5 7.5 0 1 0 15 0 a7.5 7.5 0 1 0 -15 0zM916.8 646.11 a7.5 7.5 0 1 0 15 0 a7.5 7.5 0 1 0 -15 0zM916.8 571.11 a7.5 7.5 0 1 0 15 0 a7.5 7.5 0 1 0 -15 0zM1111.66 83.61 a7.5 7.5 0 1 0 15 0 a7.5 7.5 0 1 0 -15 0zM1176.62 121.11 a7.5 7.5 0 1 0 15 0 a7.5 7.5 0 1 0 -15 0zM1176.62 196.11 a7.5 7.5 0 1 0 15 0 a7.5 7.5 0 1 0 -15 0zM1111.66 233.61 a7.5 7.5 0 1 0 15 0 a7.5 7.5 0 1 0 -15 0zM1046.71 196.11 a7.5 7.5 0 1 0 15 0 a7.5 7.5 0 1 0 -15 0zM1046.71 121.11 a7.5 7.5 0 1 0 15 0 a7.5 7.5 0 1 0 -15 0zM1046.71 421.11 a7.5 7.5 0 1 0 15 0 a7.5 7.5 0 1 0 -15 0zM1111.66 458.61 a7.5 7.5 0 1 0 15 0 a7.5 7.5 0 1 0 -15 0zM1111.66 533.61 a7.5 7.5 0 1 0 15 0 a7.5 7.5 0 1 0 -15 0zM981.76 458.61 a7.5 7.5 0 1 0 15 0 a7.5 7.5 0 1 0 -15 0zM1176.62 -28.89 a7.5 7.5 0 1 0 15 0 a7.5 7.5 0 1 0 -15 0zM1241.57 8.61 a7.5 7.5 0 1 0 15 0 a7.5 7.5 0 1 0 -15 0zM1241.57 83.61 a7.5 7.5 0 1 0 15 0 a7.5 7.5 0 1 0 -15 0zM1111.66 8.61 a7.5 7.5 0 1 0 15 0 a7.5 7.5 0 1 0 -15 0zM1241.57 233.61 a7.5 7.5 0 1 0 15 0 a7.5 7.5 0 1 0 -15 0zM1241.57 308.61 a7.5 7.5 0 1 0 15 0 a7.5 7.5 0 1 0 -15 0zM1176.62 346.11 a7.5 7.5 0 1 0 15 0 a7.5 7.5 0 1 0 -15 0zM1111.66 308.61 a7.5 7.5 0 1 0 15 0 a7.5 7.5 0 1 0 -15 0zM1241.57 533.61 a7.5 7.5 0 1 0 15 0 a7.5 7.5 0 1 0 -15 0zM1306.52 571.11 a7.5 7.5 0 1 0 15 0 a7.5 7.5 0 1 0 -15 0zM1306.52 646.11 a7.5 7.5 0 1 0 15 0 a7.5 7.5 0 1 0 -15 0zM1241.57 683.61 a7.5 7.5 0 1 0 15 0 a7.5 7.5 0 1 0 -15 0zM1176.62 646.11 a7.5 7.5 0 1 0 15 0 a7.5 7.5 0 1 0 -15 0zM1176.62 571.11 a7.5 7.5 0 1 0 15 0 a7.5 7.5 0 1 0 -15 0z" fill="url(#SvgjsLinearGradient2475)"></path><path d="M1.6 -11.84L56.16 19.66L56.16 82.66L1.6 114.16L-52.96 82.66L-52.96 19.66zM56.16 82.66L110.72 114.16L110.72 177.16L56.16 208.66L1.6 177.16L1.6 114.16zM1.6 366.16L56.16 397.66L56.16 460.66L1.6 492.16L-52.96 460.66L-52.96 397.66zM1.6 555.16L56.16 586.66L56.16 649.66L1.6 681.16L-52.96 649.66L-52.96 586.66zM165.28 271.66L219.84 303.16L219.84 366.16L165.28 397.66L110.72 366.16L110.72 303.16zM219.84 177.16L274.41 208.66L274.41 271.66L219.84 303.16L165.28 271.66L165.28 208.66zM274.41 271.66L328.97 303.16L328.97 366.16L274.41 397.66L219.84 366.16L219.84 303.16zM383.53 82.66L438.09 114.16L438.09 177.16L383.53 208.66L328.97 177.16L328.97 114.16zM328.97 177.16L383.53 208.66L383.53 271.66L328.97 303.16L274.41 271.66L274.41 208.66zM328.97 366.16L383.53 397.66L383.53 460.66L328.97 492.16L274.41 460.66L274.41 397.66zM328.97 555.16L383.53 586.66L383.53 649.66L328.97 681.16L274.41 649.66L274.41 586.66zM438.09 -11.84L492.65 19.66L492.65 82.66L438.09 114.16L383.53 82.66L383.53 19.66zM438.09 366.16L492.65 397.66L492.65 460.66L438.09 492.16L383.53 460.66L383.53 397.66zM438.09 555.16L492.65 586.66L492.65 649.66L438.09 681.16L383.53 649.66L383.53 586.66zM601.77 460.66L656.33 492.16L656.33 555.16L601.77 586.66L547.21 555.16L547.21 492.16zM547.21 555.16L601.77 586.66L601.77 649.66L547.21 681.16L492.65 649.66L492.65 586.66zM820.02 82.66L874.58 114.16L874.58 177.16L820.02 208.66L765.46 177.16L765.46 114.16zM765.46 177.16L820.02 208.66L820.02 271.66L765.46 303.16L710.89 271.66L710.89 208.66zM929.14 271.66L983.7 303.16L983.7 366.16L929.14 397.66L874.58 366.16L874.58 303.16zM1038.26 271.66L1092.82 303.16L1092.82 366.16L1038.26 397.66L983.7 366.16L983.7 303.16zM1147.38 460.66L1201.95 492.16L1201.95 555.16L1147.38 586.66L1092.82 555.16L1092.82 492.16zM1201.95 177.16L1256.51 208.66L1256.51 271.66L1201.95 303.16L1147.38 271.66L1147.38 208.66zM1256.51 271.66L1311.07 303.16L1311.07 366.16L1256.51 397.66L1201.95 366.16L1201.95 303.16zM1311.07 177.16L1365.63 208.66L1365.63 271.66L1311.07 303.16L1256.51 271.66L1256.51 208.66zM1365.63 271.66L1420.19 303.16L1420.19 366.16L1365.63 397.66L1311.07 366.16L1311.07 303.16zM1420.19 -11.84L1474.75 19.66L1474.75 82.66L1420.19 114.16L1365.63 82.66L1365.63 19.66zM1474.75 82.66L1529.31 114.16L1529.31 177.16L1474.75 208.66L1420.19 177.16L1420.19 114.16zM1474.75 460.66L1529.31 492.16L1529.31 555.16L1474.75 586.66L1420.19 555.16L1420.19 492.16z" stroke="url(#SvgjsLinearGradient2476)" stroke-width="2"></path></g><defs><mask id="SvgjsMask2474"><rect width="1440" height="560" fill="#ffffff"></rect></mask><linearGradient x1="720" y1="560" x2="720" y2="0" gradientUnits="userSpaceOnUse" id="SvgjsLinearGradient2475"><stop stop-color="rgba(208, 0, 255, 0)" offset="0"></stop><stop stop-color="rgba(208, 0, 255, 1)" offset="1"></stop></linearGradient><linearGradient x1="720" y1="560" x2="720" y2="0" gradientUnits="userSpaceOnUse" id="SvgjsLinearGradient2476"><stop stop-color="rgba(14, 42, 71, 0)" offset="0"></stop><stop stop-color="rgba(255, 116, 0, 1)" offset="1"></stop></linearGradient></defs></svg>